/* XPM */
static char * arduino_xpm[] = {
"32 32 656 2",
"  	c None",
". 	c #2D7E99",
"+ 	c #2D819C",
"@ 	c #2D809B",
"# 	c #2D7D99",
"$ 	c #2C7B96",
"% 	c #2C7895",
"& 	c #2C7693",
"* 	c #2B7491",
"= 	c #2B728F",
"- 	c #2B708D",
"; 	c #2A6E8C",
"> 	c #2A6C8A",
", 	c #2A6A88",
"' 	c #2A6B8A",
") 	c #2A6987",
"! 	c #296886",
"~ 	c #296482",
"{ 	c #286381",
"] 	c #296583",
"^ 	c #2B6D8C",
"/ 	c #2B6F8F",
"( 	c #2B6E8E",
"_ 	c #2B6F8E",
": 	c #2B708C",
"< 	c #28657E",
"[ 	c #27667D",
"} 	c #2D829D",
"| 	c #2F8AA3",
"1 	c #3093AA",
"2 	c #2E849F",
"3 	c #2E809C",
"4 	c #3193AD",
"5 	c #2F87A3",
"6 	c #2F83A0",
"7 	c #308BA8",
"8 	c #2B708F",
"9 	c #2B6D8D",
"0 	c #2D7697",
"a 	c #2C7294",
"b 	c #2C6F91",
"c 	c #2C7194",
"d 	c #2D7195",
"e 	c #2B698B",
"f 	c #295F80",
"g 	c #2A6588",
"h 	c #2C6D93",
"i 	c #2C6C92",
"j 	c #2D7096",
"k 	c #2D6F94",
"l 	c #2D7093",
"m 	c #2C6F8F",
"n 	c #275D76",
"o 	c #275F76",
"p 	c #266073",
"q 	c #2F89A3",
"r 	c #34A5B9",
"s 	c #2D7A98",
"t 	c #2E819E",
"u 	c #2D7695",
"v 	c #2E7797",
"w 	c #2B6889",
"x 	c #2B6A8B",
"y 	c #3185AB",
"z 	c #3181A9",
"A 	c #3181AB",
"B 	c #2C698E",
"C 	c #285A7B",
"D 	c #275879",
"E 	c #2A6389",
"F 	c #2E709B",
"G 	c #265473",
"H 	c #2B658A",
"I 	c #2C688D",
"J 	c #2B668B",
"K 	c #2B6789",
"L 	c #2A6584",
"M 	c #275D75",
"N 	c #28637B",
"O 	c #245868",
"P 	c #256070",
"Q 	c #2D809C",
"R 	c #2E86A0",
"S 	c #2E829D",
"T 	c #2D7E9A",
"U 	c #2F87A4",
"V 	c #3292AE",
"W 	c #2E7A9A",
"X 	c #2D7192",
"Y 	c #2B6486",
"Z 	c #2A6184",
"` 	c #295F81",
" .	c #285C7E",
"..	c #285A7C",
"+.	c #28587A",
"@.	c #275678",
"#.	c #275475",
"$.	c #265273",
"%.	c #265170",
"&.	c #254F6D",
"*.	c #254D6B",
"=.	c #295D82",
"-.	c #2A6085",
";.	c #295E81",
">.	c #285D7E",
",.	c #285C7A",
"'.	c #275D79",
").	c #234F62",
"!.	c #235161",
"~.	c #245A6A",
"{.	c #2D7D9A",
"].	c #2C7896",
"^.	c #2D7594",
"/.	c #2D7696",
"(.	c #3184A7",
"_.	c #307CA0",
":.	c #2A6284",
"<.	c #2A5E81",
"[.	c #2B5D80",
"}.	c #678AA3",
"|.	c #85A0B4",
"1.	c #86A0B4",
"2.	c #859EB2",
"3.	c #859DB0",
"4.	c #859CAE",
"5.	c #8098AA",
"6.	c #476881",
"7.	c #244A67",
"8.	c #244865",
"9.	c #28577D",
"0.	c #295980",
"a.	c #285A7F",
"b.	c #28597C",
"c.	c #28597B",
"d.	c #296184",
"e.	c #24516A",
"f.	c #224B5D",
"g.	c #235467",
"h.	c #2C7B97",
"i.	c #2D7996",
"j.	c #318AA8",
"k.	c #2C6E8F",
"l.	c #2F779C",
"m.	c #2E739A",
"n.	c #295C80",
"o.	c #2D5C80",
"p.	c #C4D1DB",
"q.	c #FFFFFF",
"r.	c #FCFCFD",
"s.	c #788D9F",
"t.	c #234561",
"u.	c #254D6F",
"v.	c #275277",
"w.	c #285880",
"x.	c #275378",
"y.	c #275579",
"z.	c #254F6E",
"A.	c #224760",
"B.	c #244D66",
"C.	c #235065",
"D.	c #2C7894",
"E.	c #2D7896",
"F.	c #328DAD",
"G.	c #2E7598",
"H.	c #2D6E93",
"I.	c #2E7199",
"J.	c #2E6D97",
"K.	c #28577C",
"L.	c #7995AC",
"M.	c #F5F6F7",
"N.	c #2C4A65",
"O.	c #21405B",
"P.	c #244A6B",
"Q.	c #254D71",
"R.	c #27537A",
"S.	c #254E71",
"T.	c #265175",
"U.	c #234967",
"V.	c #224C62",
"W.	c #2C7492",
"X.	c #2D7494",
"Y.	c #307FA2",
"Z.	c #317DA4",
"`.	c #3077A1",
" +	c #2E6B95",
".+	c #2D6894",
"++	c #275478",
"@+	c #9FB2C2",
"#+	c #F8F9FA",
"$+	c #3C5B79",
"%+	c #355572",
"&+	c #345370",
"*+	c #34526D",
"=+	c #33506B",
"-+	c #7F91A1",
";+	c #4B6277",
">+	c #203C56",
",+	c #203C55",
"'+	c #254B6F",
")+	c #244A6D",
"!+	c #24496A",
"~+	c #1F3B52",
"{+	c #1F3B51",
"]+	c #21495F",
"^+	c #2B718E",
"/+	c #2C6E90",
"(+	c #2F7A9F",
"_+	c #3076A0",
":+	c #2D6A94",
"<+	c #2D6692",
"[+	c #2C6490",
"}+	c #264F72",
"|+	c #A0B0C0",
"1+	c #F4F6F7",
"2+	c #234463",
"3+	c #224260",
"4+	c #21405D",
"5+	c #213E5A",
"6+	c #203D58",
"7+	c #697C8E",
"8+	c #4C6175",
"9+	c #1E3851",
"0+	c #1E3850",
"a+	c #224364",
"b+	c #254D75",
"c+	c #234465",
"d+	c #1E364D",
"e+	c #20455C",
"f+	c #2A6D8B",
"g+	c #2A6989",
"h+	c #2B698C",
"i+	c #2E749C",
"j+	c #2E709D",
"k+	c #2C6591",
"l+	c #2B618D",
"m+	c #2B5E8A",
"n+	c #25496C",
"o+	c #9FAEBD",
"p+	c #21405C",
"q+	c #203D59",
"r+	c #203C57",
"s+	c #203B55",
"t+	c #1F3953",
"u+	c #68798A",
"v+	c #4B5E70",
"w+	c #1D354B",
"x+	c #1C344A",
"y+	c #1C354B",
"z+	c #1F3B56",
"A+	c #1F3C59",
"B+	c #254A71",
"C+	c #1D3348",
"D+	c #204359",
"E+	c #296485",
"F+	c #2A6487",
"G+	c #2E6E99",
"H+	c #2E6B9A",
"I+	c #2B608B",
"J+	c #2A5C87",
"K+	c #2A5883",
"L+	c #244565",
"M+	c #9EADBA",
"N+	c #F4F5F7",
"O+	c #1F3A54",
"P+	c #1F3851",
"Q+	c #1E364F",
"R+	c #1D354D",
"S+	c #677786",
"T+	c #4A5B6D",
"U+	c #1E3853",
"V+	c #1B3146",
"W+	c #1B3145",
"X+	c #1B3045",
"Y+	c #1C3146",
"Z+	c #1D364F",
"`+	c #1C3044",
" @	c #1F4156",
".@	c #296684",
"+@	c #2C6E93",
"@@	c #2B658B",
"#@	c #2D6994",
"$@	c #2C6592",
"%@	c #2A5A84",
"&@	c #295680",
"*@	c #28547D",
"=@	c #22415F",
"-@	c #9EABB8",
";@	c #F4F5F6",
">@	c #1D344C",
",@	c #1C334A",
"'@	c #1C3148",
")@	c #667483",
"!@	c #4A5C6E",
"~@	c #224369",
"{@	c #1A2E41",
"]@	c #1D354F",
"^@	c #213F62",
"/@	c #1B3044",
"(@	c #1F3854",
"_@	c #1E3F53",
":@	c #28627F",
"<@	c #285A7D",
"[@	c #2B638C",
"}@	c #28557D",
"|@	c #28527A",
"1@	c #264F76",
"2@	c #9DA9B5",
"3@	c #1C3249",
"4@	c #1C3147",
"5@	c #1B3046",
"6@	c #1B2F44",
"7@	c #657380",
"8@	c #485666",
"9@	c #192B3F",
"0@	c #192B3E",
"a@	c #182A3E",
"b@	c #192B3D",
"c@	c #192A3D",
"d@	c #1A2A3C",
"e@	c #1E3D51",
"f@	c #285F7C",
"g@	c #275574",
"h@	c #275474",
"i@	c #2A5C84",
"j@	c #2A5A85",
"k@	c #275077",
"l@	c #264D74",
"m@	c #254A70",
"n@	c #9DA8B3",
"o@	c #1A2E43",
"p@	c #1A2D41",
"q@	c #192C40",
"r@	c #64707E",
"s@	c #465463",
"t@	c #18293B",
"u@	c #18293A",
"v@	c #1D3756",
"w@	c #1C324C",
"x@	c #192939",
"y@	c #1D3C4F",
"z@	c #275E7A",
"A@	c #285979",
"B@	c #254E6C",
"C@	c #28577E",
"D@	c #28557F",
"E@	c #254B70",
"F@	c #25496F",
"G@	c #24466B",
"H@	c #9CA6B1",
"I@	c #192C41",
"J@	c #192B40",
"K@	c #18293C",
"L@	c #636F7B",
"M@	c #465360",
"N@	c #172738",
"O@	c #192D44",
"P@	c #18293E",
"Q@	c #17273A",
"R@	c #172636",
"S@	c #182636",
"T@	c #1C3B4D",
"U@	c #2A6286",
"V@	c #244966",
"W@	c #275278",
"X@	c #265079",
"Y@	c #24476C",
"Z@	c #23456A",
"`@	c #224366",
" #	c #1C324A",
".#	c #9BA5AF",
"+#	c #17283A",
"@#	c #172739",
"##	c #636D79",
"$#	c #45515D",
"%#	c #162434",
"&#	c #1B3352",
"*#	c #17293D",
"=#	c #162433",
"-#	c #172433",
";#	c #1C394A",
">#	c #245369",
",#	c #22455C",
"'#	c #254E70",
")#	c #264B73",
"!#	c #234467",
"~#	c #224265",
"{#	c #213F61",
"]#	c #1B3047",
"^#	c #9BA4AD",
"/#	c #F6F7F8",
"(#	c #515E6D",
"_#	c #515D6B",
":#	c #515C6A",
"<#	c #505C69",
"[#	c #505B68",
"}#	c #899099",
"|#	c #454F5B",
"1#	c #152231",
"2#	c #152230",
"3#	c #192B44",
"4#	c #172537",
"5#	c #18283D",
"6#	c #162230",
"7#	c #1B3848",
"8#	c #235066",
"9#	c #224763",
"0#	c #234366",
"a#	c #24466D",
"b#	c #203E60",
"c#	c #203C5C",
"d#	c #1A2D43",
"e#	c #9AA2AB",
"f#	c #444E58",
"g#	c #14212E",
"h#	c #14212D",
"i#	c #353F4A",
"j#	c #1D2935",
"k#	c #15212D",
"l#	c #16212D",
"m#	c #1B3846",
"n#	c #254D70",
"o#	c #224267",
"p#	c #213E60",
"q#	c #9AA1AA",
"r#	c #434D56",
"s#	c #121F2B",
"t#	c #BDC0C4",
"u#	c #FDFEFE",
"v#	c #EAEBEC",
"w#	c #38414B",
"x#	c #151F2B",
"y#	c #1A3645",
"z#	c #214A5F",
"A#	c #234768",
"B#	c #254972",
"C#	c #203C5D",
"D#	c #99A0A9",
"E#	c #F7F7F8",
"F#	c #57606C",
"G#	c #56606A",
"H#	c #565F69",
"I#	c #565E68",
"J#	c #555E67",
"K#	c #8C9298",
"L#	c #424C55",
"M#	c #121E2A",
"N#	c #414B54",
"O#	c #505861",
"P#	c #DFE0E2",
"Q#	c #91969B",
"R#	c #141E29",
"S#	c #151E29",
"T#	c #193544",
"U#	c #21475D",
"V#	c #234264",
"W#	c #24456E",
"X#	c #1F3958",
"Y#	c #1E3858",
"Z#	c #182A3F",
"`#	c #18283C",
" $	c #999FA7",
".$	c #F4F4F5",
"+$	c #14212F",
"@$	c #14202D",
"#$	c #131F2B",
"$$	c #121E2B",
"%$	c #5F6770",
"&$	c #414A53",
"*$	c #111C27",
"=$	c #26303A",
"-$	c #F6F6F7",
";$	c #C1C3C6",
">$	c #FEFEFE",
",$	c #6E747A",
"'$	c #141D28",
")$	c #193543",
"!$	c #20445A",
"~$	c #223F60",
"{$	c #23436A",
"]$	c #1F395A",
"^$	c #1E3655",
"/$	c #1D3655",
"($	c #18293D",
"_$	c #1C3351",
":$	c #1B314F",
"<$	c #999FA6",
"[$	c #131F2C",
"}$	c #121D29",
"|$	c #111D28",
"1$	c #5F666E",
"2$	c #414952",
"3$	c #111B25",
"4$	c #495159",
"5$	c #A3A7AB",
"6$	c #767C81",
"7$	c #141D27",
"8$	c #131C26",
"9$	c #141C26",
"0$	c #193441",
"a$	c #204258",
"b$	c #213C5D",
"c$	c #224066",
"d$	c #1F3757",
"e$	c #1D3552",
"f$	c #1C3452",
"g$	c #172639",
"h$	c #162436",
"i$	c #999EA5",
"j$	c #F3F4F5",
"k$	c #121D2A",
"l$	c #111B26",
"m$	c #5F656D",
"n$	c #414850",
"o$	c #111A24",
"p$	c #767B81",
"q$	c #D7D9DB",
"r$	c #ABAEB1",
"s$	c #1D242E",
"t$	c #131A23",
"u$	c #193340",
"v$	c #20395A",
"w$	c #213E64",
"x$	c #1E3554",
"y$	c #1C324F",
"z$	c #1B324F",
"A$	c #172538",
"B$	c #162435",
"C$	c #162233",
"D$	c #989EA4",
"E$	c #111B27",
"F$	c #111A25",
"G$	c #5F656C",
"H$	c #40484F",
"I$	c #101922",
"J$	c #313941",
"K$	c #5E646A",
"L$	c #C3C5C7",
"M$	c #818489",
"N$	c #131922",
"O$	c #19323F",
"P$	c #1F4056",
"Q$	c #203858",
"R$	c #213D62",
"S$	c #1E3452",
"T$	c #1C314E",
"U$	c #1B304E",
"V$	c #172536",
"W$	c #17273D",
"X$	c #17263A",
"Y$	c #989DA3",
"Z$	c #F3F4F4",
"`$	c #121D28",
" %	c #5F646B",
".%	c #40464E",
"+%	c #101822",
"@%	c #363C45",
"#%	c #4C5259",
"$%	c #BCBEC0",
"%%	c #86898E",
"&%	c #19333F",
"*%	c #1F3F54",
"=%	c #1F3756",
"-%	c #213C60",
";%	c #1E3350",
">%	c #1D3252",
",%	c #1B304D",
"'%	c #162232",
")%	c #15212F",
"!%	c #656C75",
"~%	c #A3A7AC",
"{%	c #9CA0A5",
"]%	c #131C27",
"^%	c #131A26",
"/%	c #121925",
"(%	c #121A25",
"_%	c #111822",
":%	c #A2A4A8",
"<%	c #2E343C",
"[%	c #101721",
"}%	c #101821",
"|%	c #888C90",
"1%	c #BEBFC2",
"2%	c #232831",
"3%	c #141922",
"4%	c #1F3F53",
"5%	c #1E3352",
"6%	c #1E3251",
"7%	c #1B2F4B",
"8%	c #1B2F4C",
"9%	c #15202E",
"0%	c #141D2A",
"a%	c #141C28",
"b%	c #131B27",
"c%	c #131A25",
"d%	c #121923",
"e%	c #162134",
"f%	c #141D2D",
"g%	c #121822",
"h%	c #121821",
"i%	c #121820",
"j%	c #131820",
"k%	c #131821",
"l%	c #141821",
"m%	c #19313E",
"n%	c #20475A",
"o%	c #1D2F47",
"p%	c #1F3558",
"q%	c #1D2F4B",
"r%	c #1D3251",
"s%	c #1C3050",
"t%	c #16212F",
"u%	c #16202D",
"v%	c #192942",
"w%	c #162132",
"x%	c #162337",
"y%	c #162033",
"z%	c #131924",
"A%	c #131823",
"B%	c #131822",
"C%	c #12171F",
"D%	c #13171F",
"E%	c #14171F",
"F%	c #1C3C4A",
"G%	c #1C3646",
"H%	c #1E314F",
"I%	c #1D304C",
"J%	c #1E3252",
"K%	c #1C2D47",
"L%	c #182436",
"M%	c #16212E",
"N%	c #151F2C",
"O%	c #162133",
"P%	c #151D2A",
"Q%	c #151D2C",
"R%	c #141B29",
"S%	c #131923",
"T%	c #131721",
"U%	c #131720",
"V%	c #182833",
"W%	c #1F4457",
"X%	c #1F4057",
"Y%	c #1E3F57",
"Z%	c #1E3D53",
"`%	c #1D3D53",
" &	c #1B3646",
".&	c #1A3545",
"+&	c #193443",
"@&	c #193442",
"#&	c #193341",
"$&	c #183240",
"%&	c #18313F",
"&&	c #18313E",
"*&	c #18303D",
"=&	c #18303C",
"-&	c #19303C",
";&	c #1B3C49",
"                                                                ",
"      . + @ # $ % & * = - ; > , ' ) ! ~ { ] ^ / ( _ : < [       ",
"    } | 1 2 3 4 5 6 7 8 9 0 a b c d e f g h i j k l m n o p     ",
"  . q | r 2 s t s u v w x y z A B C D E F G H I J K L M N O P   ",
"  Q R S T U V W X w Y Z `  ...+.@.#.$.%.&.*.=.-.;.>.,.'.).!.~.  ",
"  T S {.].^./.(._.:.<.[.}.|.1.2.3.4.5.6.7.8.9.0.a.b.c.d.e.f.g.  ",
"  h.{.i.j.k.K l.m.n.o.p.q.q.q.q.q.q.q.r.s.t.u.v.w.x.y.z.A.B.C.  ",
"  D.E.s F.G.H.I.J.K.L.q.q.q.q.q.q.q.q.q.M.N.O.P.Q.R.S.T.U.y.V.  ",
"  * W.X.Y.Z.`. +.+++@+q.#+$+%+&+*+=+-+q.q.;+>+,+'+)+)+!+~+{+]+  ",
"  ^+_ /+(+_+:+<+[+}+|+q.1+2+3+4+5+6+7+q.q.8+9+0+a+b+c+c+d+d+e+  ",
"  f+g+h+i+j+k+l+m+n+o+q.1+p+q+r+s+t+u+q.q.v+w+x+y+z+A+B+C+C+D+  ",
"  ) E+F+G+H+I+J+K+L+M+q.N+r+O+P+Q+R+S+q.q.T+U+V+W+X+Y+Z+`+`+ @  ",
"  .@+@@@#@$@%@&@*@=@-@q.;@9+Q+>@,@'@)@q.q.!@~@V+{@{@]@^@/@(@_@  ",
"  :@C <@[@I+}@|@1@q+2@q.;@>@3@4@5@6@7@q.q.8@9@0@a@b@c@c@d@d@e@  ",
"  f@g@h@i@j@k@l@m@O+n@q.;@4@X+o@p@q@r@q.q.s@t@u@u@v@w@x@x@x@y@  ",
"  z@A@B@C@D@E@F@G@Q+H@q.;@o@I@J@a@K@L@q.q.M@N@O@N@P@Q@R@S@S@T@  ",
"  :@U@V@W@X@Y@Z@`@ #.#q.;@J@a@t@+#@###q.q.$#%#&#*#=#=#=#-#-#;#  ",
"  >#,#'#E@)#!#~#{#]#^#q./#(#_#:#<#[#}#q.q.|#1#2#2#2#3#4#5#6#7#  ",
"  8#9#)+)#0#a#b#c#d#e#q.q.q.q.q.q.q.q.q.q.f#g#h#h#i#j#k#l#l#m#  ",
"  V.n#Y@0#o#p#^@d#J@q#q.q.q.q.q.q.q.q.q.q.r#s#h#t#u#v#w#x#x#y#  ",
"  z#A#B#p#p#C#5@J@K@D#q.E#F#G#H#I#J#K#q.q.L#M#N#q.O#P#Q#R#S#T#  ",
"  U#V#W#C#X#Y#J@Z#`# $q..$+$@$#$$$M#%$q.q.&$*$=$-$;$>$,$'$'$)$  ",
"  !$~${$]$^$/$($_$:$<$q..$[$$$M#}$|$1$q.q.2$3$3$4$5$6$7$8$9$0$  ",
"  a$b$c$d$e$f$Q@g$h$i$q.j$$$k$|$*$l$m$q.q.n$o$o$p$q$r$s$t$t$u$  ",
"   @v$w$x$y$z$A$B$C$D$q.j$}$*$E$F$F$G$q.q.H$I$J$-$K$L$M$N$N$O$  ",
"  P$Q$R$S$T$U$V$W$X$Y$q.Z$`$E$F$o$o$ %q.q..%+%@%-$#%$%%%N$N$&%  ",
"  *%=%-%;%>%,%g$'%)%!%~%{%]%^%/%(%_%.%:%:%<%[%}%|%v#1%2%N$3%O$  ",
"  4%Q$d$5%6%7%8%6#9%x#0%a%b%c%d%e%f%g%h%h%i%i%i%i%i%j%j%k%l%m%  ",
"  n%o%;%p%q%r%s%t%u%v%w%x%y%z%N$c%A%B%k%j%j%C%C%C%C%D%D%D%E%F%  ",
"    G%H%I%J%K%L%M%N%O%P%Q%R%S%B%B%T%U%D%C%C%C%C%C%C%D%D%E%V%    ",
"      W%X%Y%Z%`% &.&+&@&#&$&%&%&&&*&*&=&=&=&=&=&=&=&=&-&;&      ",
"                                                                "};
